<svg xmlns="http://www.w3.org/2000/svg" xmlns:svg="http://www.w3.org/2000/svg" xmlns:xlink="http://www.w3.org/1999/xlink" id="svg2" width="250" height="250" version="1.1"><defs id="defs4"><linearGradient id="linearGradient3924-6"><stop style="stop-color:#fff;stop-opacity:1" id="stop3926-1" offset="0"/><stop id="stop3928-4" offset=".023" style="stop-color:#fff;stop-opacity:.23529412"/><stop style="stop-color:#fff;stop-opacity:.15686275" id="stop3930-5" offset=".975"/><stop style="stop-color:#fff;stop-opacity:.39215687" id="stop3932-25" offset="1"/></linearGradient><linearGradient id="linearGradient8265-821-176-38-919-66-249-7-7-8"><stop id="stop2687-1-9-0" offset="0" style="stop-color:#fff;stop-opacity:1"/><stop id="stop2689-5-4-8" offset="1" style="stop-color:#fff;stop-opacity:0"/></linearGradient><linearGradient id="linearGradient3844-9-0"><stop style="stop-color:#cacaca;stop-opacity:1" id="stop3846-6-4" offset="0"/><stop style="stop-color:#f7f7f7;stop-opacity:1" id="stop3848-2-7" offset="1"/></linearGradient><filter id="filter5896" width="1.208" height="1.11" x="-.104" y="-.055" color-interpolation-filters="sRGB"><feGaussianBlur id="feGaussianBlur5898" stdDeviation="2.358"/></filter><linearGradient id="linearGradient3707-319-631-407-324-616-674-812-821-107-178-392-400-6-8-495-345-1"><stop id="stop12772-1" offset="0" style="stop-color:#000;stop-opacity:.86400002"/><stop id="stop12774-1" offset="1" style="stop-color:#000;stop-opacity:.78399998"/></linearGradient><radialGradient id="radialGradient4877-815-515" cx="7.496" cy="8.45" r="20" fx="7.496" fy="8.45" gradientTransform="matrix(6.7750561e-8,8.1495046,-8.6212041,-1.5014497e-7,151.84756,532.73607)" gradientUnits="userSpaceOnUse" xlink:href="#linearGradient2867-449-88-871-390-598-476-591-434-148-57-177-641-289-620-227-114-444-680-744-4-9-395-147-5-846-960"/><linearGradient id="linearGradient2867-449-88-871-390-598-476-591-434-148-57-177-641-289-620-227-114-444-680-744-4-9-395-147-5-846-960"><stop id="stop10602" offset="0" style="stop-color:#363636;stop-opacity:1"/><stop id="stop10608" offset="1" style="stop-color:#1d1d1d;stop-opacity:1"/></linearGradient><linearGradient id="linearGradient13476" x1="24" x2="24" y1="44" y2="3.899" gradientTransform="matrix(3.5128211,0,0,3.5128211,-163.30768,575.4831)" gradientUnits="userSpaceOnUse" xlink:href="#linearGradient3707-319-631-407-324-616-674-812-821-107-178-392-400-6-8-495-345-1"/><linearGradient id="linearGradient13478" x1="24" x2="24" y1="5" y2="43" gradientTransform="matrix(3.6486487,0,0,3.6486487,-8.567573,572.22326)" gradientUnits="userSpaceOnUse" xlink:href="#linearGradient3924-6"/><linearGradient id="linearGradient13480" x1="16.626" x2="20.055" y1="15.298" y2="24.628" gradientTransform="matrix(2.9525606,0,0,4.4537336,8.0004059,566.35012)" gradientUnits="userSpaceOnUse" xlink:href="#linearGradient8265-821-176-38-919-66-249-7-7-8"/><linearGradient id="linearGradient13482" x1="238.04" x2="238.04" y1="-81.777" y2="-164.299" gradientTransform="matrix(1.3745212,0,0,1.3723759,-259.93187,831.477)" gradientUnits="userSpaceOnUse" xlink:href="#linearGradient3844-9-0"/><linearGradient id="linearGradient4641" x1="24" x2="24" y1="44" y2="3.899" gradientTransform="matrix(3.5128211,0,0,3.5128211,-163.30768,575.4831)" gradientUnits="userSpaceOnUse" xlink:href="#linearGradient3707-319-631-407-324-616-674-812-821-107-178-392-400-6-8-495-345-1"/><radialGradient id="radialGradient4643" cx="7.496" cy="8.45" r="20" fx="7.496" fy="8.45" gradientTransform="matrix(6.7750561e-8,8.1495046,-8.6212041,-1.5014497e-7,151.84756,532.73607)" gradientUnits="userSpaceOnUse" xlink:href="#linearGradient2867-449-88-871-390-598-476-591-434-148-57-177-641-289-620-227-114-444-680-744-4-9-395-147-5-846-960"/><linearGradient id="linearGradient4645" x1="24" x2="24" y1="5" y2="43" gradientTransform="matrix(3.6486487,0,0,3.6486487,-8.567573,572.22326)" gradientUnits="userSpaceOnUse" xlink:href="#linearGradient3924-6"/><linearGradient id="linearGradient4647" x1="16.626" x2="20.055" y1="15.298" y2="24.628" gradientTransform="matrix(2.9525606,0,0,4.4537336,8.0004059,566.35012)" gradientUnits="userSpaceOnUse" xlink:href="#linearGradient8265-821-176-38-919-66-249-7-7-8"/><linearGradient id="linearGradient4649" x1="238.04" x2="238.04" y1="-81.777" y2="-164.299" gradientTransform="matrix(1.3745212,0,0,1.3723759,-259.93187,831.477)" gradientUnits="userSpaceOnUse" xlink:href="#linearGradient3844-9-0"/><linearGradient id="linearGradient3831" x1="16.626" x2="20.055" y1="15.298" y2="24.628" gradientTransform="matrix(2.759155,0,0,4.2205335,11.863797,570.91837)" gradientUnits="userSpaceOnUse" xlink:href="#linearGradient8265-821-176-38-919-66-249-7-7-8"/><radialGradient id="radialGradient6303" cx="7.496" cy="8.45" r="20" fx="7.496" fy="8.45" gradientTransform="matrix(1.0093581e-7,12.141254,-12.844,-2.2368823e-7,233.37456,422.45553)" gradientUnits="userSpaceOnUse" xlink:href="#linearGradient2867-449-88-871-390-598-476-591-434-148-57-177-641-289-620-227-114-444-680-744-4-9-395-147-5-846-960"/><linearGradient id="linearGradient6305" x1="238.04" x2="238.04" y1="-81.777" y2="-164.299" gradientTransform="matrix(2.6041365,0,0,2.0913029,-518.87827,869.24475)" gradientUnits="userSpaceOnUse" xlink:href="#linearGradient3844-9-0"/><linearGradient id="linearGradient6308" x1="238.04" x2="238.04" y1="-81.777" y2="-164.299" gradientTransform="matrix(3.213161,0,0,2.5803919,-669.2701,931.51333)" gradientUnits="userSpaceOnUse" xlink:href="#linearGradient3844-9-0"/><radialGradient id="radialGradient6312" cx="7.496" cy="8.45" r="20" fx="7.496" fy="8.45" gradientTransform="matrix(1.2454148e-7,14.980706,-15.847802,-2.7600177e-7,258.91067,380.23436)" gradientUnits="userSpaceOnUse" xlink:href="#linearGradient2867-449-88-871-390-598-476-591-434-148-57-177-641-289-620-227-114-444-680-744-4-9-395-147-5-846-960"/></defs><metadata id="metadata7"/><g id="layer1" transform="translate(8.7320805e-6,-488.79077)"><rect style="color:#000;fill:url(#radialGradient6312);fill-opacity:1;fill-rule:nonzero;stroke:none;stroke-width:.99999994;marker:none;visibility:visible;display:inline;overflow:visible;enable-background:accumulate" id="rect5505-21-8" width="250" height="250" x="0" y="488.791"/><path style="opacity:.6;fill:#000;fill-opacity:1;stroke:none;filter:url(#filter5896)" id="path3982-4" d="m 83.108151,609.69955 c -3.78964,-0.29916 -2.92889,4.05015 -3.00679,6.56315 -0.0361,21.6705 0.0226,43.35339 -0.0729,65.01616 -1.53543,1.16636 -3.5002,0.12572 -5.60419,0.12713 -9.53585,0.49903 -19.22792,7.8661 -19.75574,17.86941 -0.48678,8.27569 8.64082,14.57907 16.37218,12.79436 9.44568,-1.51143 16.35052,-11.37772 15.03429,-20.76038 0.0815,-17.8191 -0.360727,-35.68119 -0.07514,-53.47371 3.490788,0 4.84908,1.56342 8.166667,3.89977 3.317587,2.33635 12.308402,13.92103 11.663102,23.04862 -0.14979,5.63769 -1.66088,11.13164 -3.49435,16.43005 8.36887,-11.99367 9.53321,-29.33859 0.67828,-41.40063 -4.535732,-5.72341 -10.135012,-10.70118 -13.293492,-17.41624 -1.93158,-3.65921 -3.26885,-7.65694 -3.87629,-11.7344 -0.5608,-0.92075 -1.79069,-0.93667 -2.73574,-0.96329 z" transform="matrix(2.2309693,0,0,1.8802369,-63.657976,-625.66007)"/><path style="fill:url(#linearGradient6308);fill-opacity:1;stroke:none" id="path3982" d="m 132.64026,514.51918 c -8.85889,-0.56251 -6.84674,7.61523 -7.02885,12.34027 -0.0844,40.74568 0.0528,81.51464 -0.1704,122.24578 -5.24659,0.53576 -8.18227,0.23638 -13.10068,0.23905 -22.291562,0.93829 -44.948309,14.79011 -46.182171,33.59871 -0.03307,16.66511 9.703166,26.30725 38.272561,24.05643 22.08077,-5.60399 34.35494,-14.21126 35.14503,-39.03443 0.19052,-33.50412 -0.84325,-67.08909 -0.17565,-100.54326 8.16027,0 11.33549,2.9396 19.09087,7.33251 7.75538,4.39289 28.77282,26.17483 27.26433,43.33686 -0.35016,10.6002 -3.88254,20.93012 -8.16858,30.89238 19.56358,-22.55094 22.2854,-55.16349 1.58561,-77.843 -10.60301,-10.76136 -23.69222,-20.12075 -31.07566,-32.74665 -4.51538,-6.88017 -7.64146,-14.39686 -9.06144,-22.06345 -1.31096,-1.73122 -4.18602,-1.76117 -6.39523,-1.8112 z"/></g></svg>