<svg xmlns="http://www.w3.org/2000/svg" xmlns:svg="http://www.w3.org/2000/svg" xmlns:xlink="http://www.w3.org/1999/xlink" id="svg7010" width="512" height="512" version="1.1"><defs id="defs7012"><linearGradient id="linearGradient8775"><stop style="stop-color:white;stop-opacity:0" id="stop8777" offset="0"/><stop id="stop7191" offset=".511" style="stop-color:white;stop-opacity:0"/><stop id="stop8779" offset=".851" style="stop-color:white;stop-opacity:0"/><stop style="stop-color:white;stop-opacity:1" id="stop8781" offset="1"/></linearGradient><linearGradient id="linearGradient8757"><stop id="stop8761" offset="0" style="stop-color:white;stop-opacity:0"/><stop style="stop-color:white;stop-opacity:0" id="stop8767" offset=".9"/><stop id="stop8759" offset="1" style="stop-color:white;stop-opacity:1"/></linearGradient><linearGradient id="linearGradient8661"><stop id="stop8663" offset="0" style="stop-color:#f90062;stop-opacity:1"/><stop id="stop8665" offset="1" style="stop-color:#ff418c;stop-opacity:0"/></linearGradient><linearGradient id="linearGradient8655"><stop id="stop8657" offset="0" style="stop-color:#ac57ff;stop-opacity:1"/><stop id="stop8659" offset="1" style="stop-color:#f0431a;stop-opacity:1"/></linearGradient><linearGradient id="linearGradient8265-821-176-38-919-66-249-7-7"><stop style="stop-color:#fff;stop-opacity:1" id="stop2687-1-9" offset="0"/><stop style="stop-color:#fff;stop-opacity:0" id="stop2689-5-4" offset="1"/></linearGradient><linearGradient id="linearGradient3924"><stop id="stop3926" offset="0" style="stop-color:#fff;stop-opacity:1"/><stop style="stop-color:#fff;stop-opacity:.23529412" id="stop3928" offset=".063"/><stop id="stop3930" offset=".951" style="stop-color:#fff;stop-opacity:.15686275"/><stop id="stop3932" offset="1" style="stop-color:#fff;stop-opacity:.39215687"/></linearGradient><linearGradient id="linearGradient3895-9-0-3-2-4-0"><stop id="stop3897-0-5-7-0-3-0" offset="0" style="stop-color:#dc6838;stop-opacity:1"/><stop id="stop3899-8-7-06-7-9-9" offset="1" style="stop-color:#ad3911;stop-opacity:1"/></linearGradient><linearGradient id="linearGradient3895-9-0-3-2-4"><stop id="stop3897-0-5-7-0-3" offset="0" style="stop-color:#911986;stop-opacity:1"/><stop id="stop3899-8-7-06-7-9" offset="1" style="stop-color:#ad1141;stop-opacity:1"/></linearGradient><linearGradient id="linearGradient3895-9-0-3-2-4-9"><stop id="stop3897-0-5-7-0-3-6" offset="0" style="stop-color:#dc6838;stop-opacity:1"/><stop id="stop3899-8-7-06-7-9-6" offset="1" style="stop-color:#ad3911;stop-opacity:1"/></linearGradient><linearGradient id="linearGradient4067-0-2"><stop style="stop-color:#ffe452;stop-opacity:1" id="stop4069-2-9" offset="0"/><stop style="stop-color:#ffeb41;stop-opacity:0" id="stop4071-8-9" offset="1"/></linearGradient><linearGradient id="linearGradient4644-104-3-3-6-2"><stop style="stop-color:#ff7a35;stop-opacity:1" id="stop5237-6-5-1-7" offset="0"/><stop style="stop-color:#f0431a;stop-opacity:1" id="stop5239-4-6-4-8" offset="1"/></linearGradient><linearGradient id="linearGradient7665"><stop id="stop7667" offset="0" style="stop-color:#dc6838;stop-opacity:1"/><stop id="stop7669" offset="1" style="stop-color:#ad3911;stop-opacity:1"/></linearGradient><radialGradient id="radialGradient2455-1" cx="4.993" cy="43.5" r="2.5" fx="4.993" fy="43.5" gradientTransform="matrix(2.003784,0,0,1.4,27.98813,-17.4)" gradientUnits="userSpaceOnUse" xlink:href="#linearGradient3688-166-749-5"/><linearGradient id="linearGradient3688-166-749-5"><stop id="stop2883-0" offset="0" style="stop-color:#181818;stop-opacity:1"/><stop id="stop2885-5" offset="1" style="stop-color:#181818;stop-opacity:0"/></linearGradient><radialGradient id="radialGradient2457-5" cx="4.993" cy="43.5" r="2.5" fx="4.993" fy="43.5" gradientTransform="matrix(2.003784,0,0,1.4,-20.01187,-104.4)" gradientUnits="userSpaceOnUse" xlink:href="#linearGradient3688-464-309-8"/><linearGradient id="linearGradient3688-464-309-8"><stop id="stop2889-9" offset="0" style="stop-color:#181818;stop-opacity:1"/><stop id="stop2891-4" offset="1" style="stop-color:#181818;stop-opacity:0"/></linearGradient><linearGradient id="linearGradient2459-7" x1="25.058" x2="25.058" y1="47.028" y2="39.999" gradientUnits="userSpaceOnUse" xlink:href="#linearGradient3702-501-757-0"/><linearGradient id="linearGradient3702-501-757-0"><stop id="stop2895-0" offset="0" style="stop-color:#181818;stop-opacity:0"/><stop id="stop2897-2" offset=".5" style="stop-color:#181818;stop-opacity:1"/><stop id="stop2899-6" offset="1" style="stop-color:#181818;stop-opacity:0"/></linearGradient><radialGradient id="radialGradient3902" cx="-4.029" cy="93.468" r="35.338" fx="-4.029" fy="93.468" gradientTransform="matrix(1,0,0,0.43648207,0,52.670685)" gradientUnits="userSpaceOnUse" xlink:href="#linearGradient3811"/><linearGradient id="linearGradient3811"><stop style="stop-color:#000;stop-opacity:1" id="stop3813" offset="0"/><stop style="stop-color:#000;stop-opacity:0" id="stop3815" offset="1"/></linearGradient><radialGradient id="radialGradient7861" cx="-4.029" cy="93.468" r="35.338" fx="-4.029" fy="93.468" gradientTransform="matrix(1,0,0,0.43648207,0,52.670685)" gradientUnits="userSpaceOnUse" xlink:href="#linearGradient3811"/><radialGradient id="radialGradient7863" cx="4.993" cy="43.5" r="2.5" fx="4.993" fy="43.5" gradientTransform="matrix(2.003784,0,0,1.4,27.98813,-17.4)" gradientUnits="userSpaceOnUse" xlink:href="#linearGradient3688-166-749-5"/><radialGradient id="radialGradient7865" cx="4.993" cy="43.5" r="2.5" fx="4.993" fy="43.5" gradientTransform="matrix(2.003784,0,0,1.4,-20.01187,-104.4)" gradientUnits="userSpaceOnUse" xlink:href="#linearGradient3688-464-309-8"/><linearGradient id="linearGradient7867" x1="25.058" x2="25.058" y1="47.028" y2="39.999" gradientUnits="userSpaceOnUse" xlink:href="#linearGradient3702-501-757-0"/><radialGradient id="radialGradient8763" cx="254.5" cy="289.5" r="157.5" fx="254.5" fy="289.5" gradientTransform="matrix(1.0059031,7.5993956e-8,-7.5993953e-8,1.0059031,-1.5023177,-1.7089678)" gradientUnits="userSpaceOnUse" xlink:href="#linearGradient8757"/><radialGradient id="radialGradient8773" cx="254.5" cy="289.5" r="157.5" fx="254.5" fy="289.5" gradientTransform="matrix(1.0537361,0,0,1.0417793,-13.67583,-12.095121)" gradientUnits="userSpaceOnUse" xlink:href="#linearGradient8775"/><linearGradient id="linearGradient8855" x1="16.626" x2="20.055" y1="15.298" y2="24.628" gradientTransform="matrix(8.7534315,0,0,13.716468,41.014987,521.96486)" gradientUnits="userSpaceOnUse" xlink:href="#linearGradient8265-821-176-38-919-66-249-7-7"/><linearGradient id="linearGradient8858" x1="24" x2="24" y1="5" y2="43" gradientTransform="matrix(10.79041,0,0,10.79041,-4.0489819,539.93471)" gradientUnits="userSpaceOnUse" xlink:href="#linearGradient3924"/><radialGradient id="radialGradient8862" cx="7.496" cy="8.45" r="20" fx="7.496" fy="8.45" gradientTransform="matrix(-0.20300624,9.1943889,-16.918507,-0.37355118,398.51143,-1064.8444)" gradientUnits="userSpaceOnUse" xlink:href="#linearGradient8661"/><radialGradient id="radialGradient8865" cx="7.496" cy="8.45" r="20" fx="7.496" fy="8.45" gradientTransform="matrix(2.0282874e-7,24.397639,-25.809792,-4.4949761e-7,473.00875,418.53352)" gradientUnits="userSpaceOnUse" xlink:href="#linearGradient8655"/><linearGradient id="linearGradient8867" x1="13.209" x2="13.209" y1="4.376" y2="43.847" gradientTransform="matrix(10.43977,0,0,10.43977,4.3663877,548.34998)" gradientUnits="userSpaceOnUse" xlink:href="#linearGradient3895-9-0-3-2-4"/><radialGradient id="radialGradient6898" cx="254.5" cy="289.5" r="159" fx="254.5" fy="289.5" gradientTransform="matrix(0.83846914,0,0,0.83846914,41.109603,46.763183)" gradientUnits="userSpaceOnUse" xlink:href="#linearGradient8265-821-176-38-919-66-249-7-7"/><radialGradient id="radialGradient7018" cx="254.5" cy="289.5" r="157.5" fx="254.5" fy="289.5" gradientTransform="matrix(1.0059031,7.5993956e-8,-7.5993953e-8,1.0059031,-1.5023177,-1.7089678)" gradientUnits="userSpaceOnUse" xlink:href="#linearGradient8757"/><radialGradient id="radialGradient7020" cx="-4.029" cy="93.468" r="35.338" fx="-4.029" fy="93.468" gradientTransform="matrix(1,0,0,0.43648207,0,52.670685)" gradientUnits="userSpaceOnUse" xlink:href="#linearGradient3811"/><radialGradient id="radialGradient7022" cx="4.993" cy="43.5" r="2.5" fx="4.993" fy="43.5" gradientTransform="matrix(2.003784,0,0,1.4,27.98813,-17.4)" gradientUnits="userSpaceOnUse" xlink:href="#linearGradient3688-166-749-5"/><radialGradient id="radialGradient7024" cx="4.993" cy="43.5" r="2.5" fx="4.993" fy="43.5" gradientTransform="matrix(2.003784,0,0,1.4,-20.01187,-104.4)" gradientUnits="userSpaceOnUse" xlink:href="#linearGradient3688-464-309-8"/><linearGradient id="linearGradient7026" x1="25.058" x2="25.058" y1="47.028" y2="39.999" gradientUnits="userSpaceOnUse" xlink:href="#linearGradient3702-501-757-0"/><radialGradient id="radialGradient7028" cx="7.496" cy="8.45" r="20" fx="7.496" fy="8.45" gradientTransform="matrix(2.0282874e-7,24.397639,-25.809792,-4.4949761e-7,943.54575,458.5335)" gradientUnits="userSpaceOnUse" xlink:href="#linearGradient8655"/><linearGradient id="linearGradient7030" x1="13.209" x2="13.209" y1="4.376" y2="43.847" gradientTransform="matrix(10.43977,0,0,10.43977,474.90338,588.34996)" gradientUnits="userSpaceOnUse" xlink:href="#linearGradient3895-9-0-3-2-4"/><radialGradient id="radialGradient7032" cx="254.5" cy="289.5" r="159" fx="254.5" fy="289.5" gradientTransform="matrix(0.83846914,0,0,0.83846914,41.109603,46.763183)" gradientUnits="userSpaceOnUse" xlink:href="#linearGradient8265-821-176-38-919-66-249-7-7"/><radialGradient id="radialGradient7034" cx="7.496" cy="8.45" r="20" fx="7.496" fy="8.45" gradientTransform="matrix(-0.20300624,9.1943889,-16.918507,-0.37355118,869.04843,-1104.8444)" gradientUnits="userSpaceOnUse" xlink:href="#linearGradient8661"/><linearGradient id="linearGradient7036" x1="24" x2="24" y1="5" y2="43" gradientTransform="matrix(10.020654,0,0,10.020654,484.96214,598.40882)" gradientUnits="userSpaceOnUse" xlink:href="#linearGradient3924"/><radialGradient id="radialGradient7038" cx="254.5" cy="289.5" r="157.5" fx="254.5" fy="289.5" gradientTransform="matrix(1.0537361,0,0,1.0417793,-13.67583,-12.095121)" gradientUnits="userSpaceOnUse" xlink:href="#linearGradient8775"/><linearGradient id="linearGradient7040" x1="16.626" x2="20.055" y1="15.298" y2="24.628" gradientTransform="matrix(8.4233995,0,0,13.199314,522.34971,569.68814)" gradientUnits="userSpaceOnUse" xlink:href="#linearGradient8265-821-176-38-919-66-249-7-7"/><radialGradient id="radialGradient7114" cx="254.5" cy="289.5" r="157.5" fx="254.5" fy="289.5" gradientTransform="matrix(1.0059031,7.5993956e-8,-7.5993953e-8,1.0059031,-1.5023177,-1.7089678)" gradientUnits="userSpaceOnUse" xlink:href="#linearGradient8757"/><radialGradient id="radialGradient7116" cx="-4.029" cy="93.468" r="35.338" fx="-4.029" fy="93.468" gradientTransform="matrix(1,0,0,0.43648207,0,52.670685)" gradientUnits="userSpaceOnUse" xlink:href="#linearGradient3811"/><radialGradient id="radialGradient7118" cx="4.993" cy="43.5" r="2.5" fx="4.993" fy="43.5" gradientTransform="matrix(2.003784,0,0,1.4,27.98813,-17.4)" gradientUnits="userSpaceOnUse" xlink:href="#linearGradient3688-166-749-5"/><radialGradient id="radialGradient7120" cx="4.993" cy="43.5" r="2.5" fx="4.993" fy="43.5" gradientTransform="matrix(2.003784,0,0,1.4,-20.01187,-104.4)" gradientUnits="userSpaceOnUse" xlink:href="#linearGradient3688-464-309-8"/><linearGradient id="linearGradient7122" x1="25.058" x2="25.058" y1="47.028" y2="39.999" gradientUnits="userSpaceOnUse" xlink:href="#linearGradient3702-501-757-0"/><radialGradient id="radialGradient7124" cx="7.496" cy="8.45" r="20" fx="7.496" fy="8.45" gradientTransform="matrix(2.0282874e-7,24.397639,-25.809792,-4.4949761e-7,473.00875,418.53352)" gradientUnits="userSpaceOnUse" xlink:href="#linearGradient8655"/><linearGradient id="linearGradient7126" x1="13.209" x2="13.209" y1="4.376" y2="43.847" gradientTransform="matrix(10.43977,0,0,10.43977,4.3663877,548.34998)" gradientUnits="userSpaceOnUse" xlink:href="#linearGradient3895-9-0-3-2-4"/><radialGradient id="radialGradient7128" cx="254.5" cy="289.5" r="159" fx="254.5" fy="289.5" gradientTransform="matrix(0.83846914,0,0,0.83846914,41.109603,46.763183)" gradientUnits="userSpaceOnUse" xlink:href="#linearGradient8265-821-176-38-919-66-249-7-7"/><radialGradient id="radialGradient7130" cx="7.496" cy="8.45" r="20" fx="7.496" fy="8.45" gradientTransform="matrix(-0.20300624,9.1943889,-16.918507,-0.37355118,398.51143,-1064.8444)" gradientUnits="userSpaceOnUse" xlink:href="#linearGradient8661"/><linearGradient id="linearGradient7132" x1="24" x2="24" y1="5" y2="43" gradientTransform="matrix(10.79041,0,0,10.79041,-4.0489819,539.93471)" gradientUnits="userSpaceOnUse" xlink:href="#linearGradient3924"/><radialGradient id="radialGradient7134" cx="254.5" cy="289.5" r="157.5" fx="254.5" fy="289.5" gradientTransform="matrix(1.0537361,0,0,1.0417793,-13.67583,-12.095121)" gradientUnits="userSpaceOnUse" xlink:href="#linearGradient8775"/><linearGradient id="linearGradient7136" x1="16.626" x2="20.055" y1="15.298" y2="24.628" gradientTransform="matrix(8.7534315,0,0,13.716468,41.014987,521.96486)" gradientUnits="userSpaceOnUse" xlink:href="#linearGradient8265-821-176-38-919-66-249-7-7"/></defs><metadata id="metadata7015"/><g id="layer1" transform="translate(0,-540.36218)"><g id="g7044"><path id="path8755" d="M 412,289.5 C 412,376.48485 341.48485,447 254.5,447 167.51515,447 97,376.48485 97,289.5 97,202.51515 167.51515,132 254.5,132 341.48485,132 412,202.51515 412,289.5 z" transform="matrix(1.0880503,0,0,1.0880503,-22.408805,488.87161)" style="opacity:.40000000000000002;fill:url(#radialGradient8763);fill-opacity:.24705882000000001;stroke:none;stroke-width:3;stroke-linecap:round;stroke-linejoin:round;stroke-miterlimit:4;stroke-opacity:0;stroke-dasharray:none;stroke-dashoffset:0"/><path id="path3041" d="m 31.309354,93.467628 c 0,8.518692 -15.82142,15.424462 -35.3381311,15.424462 -19.5167109,0 -35.3381309,-6.90577 -35.3381309,-15.424462 0,-8.518694 15.82142,-15.42446 35.3381309,-15.42446 19.5167111,0 35.3381311,6.905766 35.3381311,15.42446 z" transform="matrix(6.1522981,0,0,1.5376572,279.70704,856.78227)" style="opacity:.2;color:#000;fill:url(#radialGradient7861);fill-opacity:1;fill-rule:nonzero;stroke:none;stroke-width:1;marker:none;visibility:visible;display:inline;overflow:visible;enable-background:accumulate"/><g style="display:inline" id="g2036" transform="matrix(10.672885,0,0,2.1960699,-1.2285574,909.14698)"><g style="opacity:.4" id="g3712" transform="matrix(1.052632,0,0,1.285713,-1.263158,-13.42854)"><rect style="fill:url(#radialGradient7863);fill-opacity:1;stroke:none" id="rect2801" width="5" height="7" x="38" y="40"/><rect style="fill:url(#radialGradient7865);fill-opacity:1;stroke:none" id="rect3696" width="5" height="7" x="-10" y="-47" transform="scale(-1,-1)"/><rect style="fill:url(#linearGradient7867);fill-opacity:1;stroke:none" id="rect3700" width="28" height="7" x="10" y="40"/></g></g><rect id="rect5505-21" width="407.151" height="407.151" x="51.345" y="595.329" rx="23.718" ry="23.718" style="color:#000;fill:url(#radialGradient8865);fill-opacity:1;fill-rule:nonzero;stroke:url(#linearGradient8867);stroke-width:3.95292234;stroke-linecap:round;stroke-linejoin:round;stroke-miterlimit:4;stroke-opacity:1;stroke-dasharray:none;stroke-dashoffset:0;marker:none;visibility:visible;display:inline;overflow:visible;enable-background:accumulate"/><path style="opacity:.06122449;fill:url(#radialGradient6898);fill-opacity:1;stroke:#fff;stroke-width:3;stroke-linecap:round;stroke-linejoin:round;stroke-miterlimit:4;stroke-opacity:.71830987999999996;stroke-dasharray:none;stroke-dashoffset:0" id="path8769" d="M 412,289.5 C 412,376.48485 341.48485,447 254.5,447 167.51515,447 97,376.48485 97,289.5 97,202.51515 167.51515,132 254.5,132 341.48485,132 412,202.51515 412,289.5 z" transform="matrix(1.0880503,0,0,1.0880503,-22.408805,488.87161)"/><rect id="rect5505-2-6-47" width="411.104" height="411.104" x="48.479" y="-1005.224" rx="23.718" ry="23.718" transform="scale(1,-1)" style="opacity:.46130952;color:#000;fill:url(#radialGradient8862);fill-opacity:1;fill-rule:nonzero;stroke:none;stroke-width:1;marker:none;visibility:visible;display:inline;overflow:visible;enable-background:accumulate"/><rect id="rect6741-7" width="399.245" height="399.245" x="55.298" y="599.282" rx="19.765" ry="19.765" style="opacity:.5;fill:none;stroke:url(#linearGradient8858);stroke-width:3.95292187;stroke-linecap:round;stroke-linejoin:round;stroke-miterlimit:4;stroke-opacity:1;stroke-dasharray:none;stroke-dashoffset:0"/><path style="opacity:.40000000000000002;fill:url(#radialGradient8773);fill-opacity:.24705882000000001;stroke:none" id="path8771" d="M 412,289.5 C 412,376.48485 341.48485,447 254.5,447 167.51515,447 97,376.48485 97,289.5 97,202.51515 167.51515,132 254.5,132 341.48485,132 412,202.51515 412,289.5 z" transform="matrix(0.76424078,0,0,0.76424078,60.000719,582.61447)"/><g style="opacity:.4;stroke:#ca13a8;stroke-opacity:.24705882" id="g8679" transform="matrix(1.0725044,0,0,1.0725044,-18.851145,-33.449748)"><path id="path8681" d="m 137.33333,872.36218 c 0,0 -13.90617,0 16,0 53.33334,0 53.33334,-80 106.66667,-80 53.33333,0 53.33333,80 106.66667,80 28.10078,0 16,0 16,0" style="fill:none;stroke:#ca13a8;stroke-width:53.33333206;stroke-linecap:butt;stroke-linejoin:miter;stroke-opacity:.24705882"/><path style="fill:none;stroke:#ca13a8;stroke-width:53.33333206;stroke-linecap:butt;stroke-linejoin:miter;stroke-opacity:.24705882" id="path8683" d="m 137.33333,712.36218 c 0,0 -13.90617,0 16,0 53.33334,0 53.33334,80 106.66667,80 40.03041,0 50.01519,-45.06848 75.05706,-67.55131 8.32192,-7.47146 18.30669,-12.44869 31.60961,-12.44869 28.10078,0 16,0 16,0"/></g><g style="stroke:#580e34;stroke-opacity:.26760563" id="g8785" transform="translate(0,30)"><path id="path8787" d="m 137.33333,872.36218 c 0,0 -13.90617,0 16,0 53.33334,0 53.33334,-80 106.66667,-80 53.33333,0 53.33333,80 106.66667,80 28.10078,0 16,0 16,0" style="fill:none;stroke:#580e34;stroke-width:53.33333205999999649;stroke-linecap:round;stroke-linejoin:miter;stroke-opacity:.26760562999999998"/><path style="fill:none;stroke:#580e34;stroke-width:53.33333205999999649;stroke-linecap:round;stroke-linejoin:miter;stroke-opacity:.26760562999999998" id="path8789" d="m 137.33333,712.36218 c 0,0 -13.90617,0 16,0 53.33334,0 53.33334,80 106.66667,80 40.03041,0 50.01519,-45.06848 75.05706,-67.55131 8.32192,-7.47146 18.30669,-12.44869 31.60961,-12.44869 28.10078,0 16,0 16,0"/></g><g id="g8667" transform="translate(0,24)"><path style="fill:none;stroke:#fff;stroke-width:53.33299999999999841;stroke-linecap:round;stroke-linejoin:miter;stroke-opacity:1;stroke-miterlimit:4;stroke-dasharray:none" id="path6029" d="m 137.33333,872.36218 c 0,0 -13.90617,0 16,0 53.33334,0 53.33334,-80 106.66667,-80 53.33333,0 53.33333,80 106.66667,80 28.10078,0 16,0 16,0"/><path id="path6031" d="m 137.33333,712.36218 c 0,0 -13.90617,0 16,0 53.33334,0 53.33334,80 106.66667,80 40.03041,0 50.01519,-45.06848 75.05706,-67.55131 8.32192,-7.47146 18.30669,-12.44869 31.60961,-12.44869 28.10078,0 16,0 16,0" style="fill:none;stroke:#fff;stroke-width:53.33333205999999649;stroke-linecap:round;stroke-linejoin:miter;stroke-opacity:1"/></g><path id="path3333" d="m 68.41078,600.3162 c -7.206528,0 -18.502954,9.6184 -18.502954,18.97403 l 0.134051,234.01299 C 61.64105,853.04846 444.30199,760.04687 453.10593,755.57339 l 0,-136.28316 c 0,-7.15116 -8.43158,-18.97403 -14.6717,-18.97403 z" style="opacity:.21428571;fill:url(#linearGradient8855);fill-opacity:1;fill-rule:evenodd;stroke:none"/></g></g></svg>