<svg xmlns="http://www.w3.org/2000/svg" xmlns:svg="http://www.w3.org/2000/svg" xmlns:xlink="http://www.w3.org/1999/xlink" id="svg7782" width="48" height="48" version="1.1"><defs id="defs7784"><radialGradient id="radialGradient7018" cx="254.5" cy="289.5" r="157.5" fx="254.5" fy="289.5" gradientTransform="matrix(1.0059031,7.5993956e-8,-7.5993953e-8,1.0059031,-1.5023177,-1.7089678)" gradientUnits="userSpaceOnUse" xlink:href="#linearGradient8757"/><linearGradient id="linearGradient8757"><stop id="stop8761" offset="0" style="stop-color:white;stop-opacity:0"/><stop style="stop-color:white;stop-opacity:0" id="stop8767" offset=".9"/><stop id="stop8759" offset="1" style="stop-color:white;stop-opacity:1"/></linearGradient><radialGradient id="radialGradient7020" cx="-4.029" cy="93.468" r="35.338" fx="-4.029" fy="93.468" gradientTransform="matrix(1,0,0,0.43648207,0,52.670685)" gradientUnits="userSpaceOnUse" xlink:href="#linearGradient3811"/><linearGradient id="linearGradient3811"><stop style="stop-color:#000;stop-opacity:1" id="stop3813" offset="0"/><stop style="stop-color:#000;stop-opacity:0" id="stop3815" offset="1"/></linearGradient><radialGradient id="radialGradient7022" cx="4.993" cy="43.5" r="2.5" fx="4.993" fy="43.5" gradientTransform="matrix(2.003784,0,0,1.4,27.98813,-17.4)" gradientUnits="userSpaceOnUse" xlink:href="#linearGradient3688-166-749-5"/><linearGradient id="linearGradient3688-166-749-5"><stop id="stop2883-0" offset="0" style="stop-color:#181818;stop-opacity:1"/><stop id="stop2885-5" offset="1" style="stop-color:#181818;stop-opacity:0"/></linearGradient><radialGradient id="radialGradient7024" cx="4.993" cy="43.5" r="2.5" fx="4.993" fy="43.5" gradientTransform="matrix(2.003784,0,0,1.4,-20.01187,-104.4)" gradientUnits="userSpaceOnUse" xlink:href="#linearGradient3688-464-309-8"/><linearGradient id="linearGradient3688-464-309-8"><stop id="stop2889-9" offset="0" style="stop-color:#181818;stop-opacity:1"/><stop id="stop2891-4" offset="1" style="stop-color:#181818;stop-opacity:0"/></linearGradient><linearGradient id="linearGradient7026" x1="25.058" x2="25.058" y1="47.028" y2="39.999" gradientUnits="userSpaceOnUse" xlink:href="#linearGradient3702-501-757-0"/><linearGradient id="linearGradient3702-501-757-0"><stop id="stop2895-0" offset="0" style="stop-color:#181818;stop-opacity:0"/><stop id="stop2897-2" offset=".5" style="stop-color:#181818;stop-opacity:1"/><stop id="stop2899-6" offset="1" style="stop-color:#181818;stop-opacity:0"/></linearGradient><radialGradient id="radialGradient7028" cx="7.496" cy="8.45" r="20" fx="7.496" fy="8.45" gradientTransform="matrix(2.0282874e-7,24.397639,-25.809792,-4.4949761e-7,943.54575,458.5335)" gradientUnits="userSpaceOnUse" xlink:href="#linearGradient8655"/><linearGradient id="linearGradient8655"><stop id="stop8657" offset="0" style="stop-color:#ac57ff;stop-opacity:1"/><stop id="stop8659" offset="1" style="stop-color:#f0431a;stop-opacity:1"/></linearGradient><linearGradient id="linearGradient7030" x1="13.209" x2="13.209" y1="4.376" y2="43.847" gradientTransform="matrix(10.43977,0,0,10.43977,474.90338,588.34996)" gradientUnits="userSpaceOnUse" xlink:href="#linearGradient3895-9-0-3-2-4"/><linearGradient id="linearGradient3895-9-0-3-2-4"><stop id="stop3897-0-5-7-0-3" offset="0" style="stop-color:#911986;stop-opacity:1"/><stop id="stop3899-8-7-06-7-9" offset="1" style="stop-color:#ad1141;stop-opacity:1"/></linearGradient><radialGradient id="radialGradient7032" cx="254.5" cy="289.5" r="159" fx="254.5" fy="289.5" gradientTransform="matrix(0.83846914,0,0,0.83846914,41.109603,46.763183)" gradientUnits="userSpaceOnUse" xlink:href="#linearGradient8265-821-176-38-919-66-249-7-7"/><linearGradient id="linearGradient8265-821-176-38-919-66-249-7-7"><stop style="stop-color:#fff;stop-opacity:1" id="stop2687-1-9" offset="0"/><stop style="stop-color:#fff;stop-opacity:0" id="stop2689-5-4" offset="1"/></linearGradient><radialGradient id="radialGradient7034" cx="7.496" cy="8.45" r="20" fx="7.496" fy="8.45" gradientTransform="matrix(-0.20300624,9.1943889,-16.918507,-0.37355118,869.04843,-1104.8444)" gradientUnits="userSpaceOnUse" xlink:href="#linearGradient8661"/><linearGradient id="linearGradient8661"><stop id="stop8663" offset="0" style="stop-color:#f90062;stop-opacity:1"/><stop id="stop8665" offset="1" style="stop-color:#ff418c;stop-opacity:0"/></linearGradient><linearGradient id="linearGradient7036" x1="24" x2="24" y1="5" y2="43" gradientTransform="matrix(10.020654,0,0,10.020654,484.96214,598.40882)" gradientUnits="userSpaceOnUse" xlink:href="#linearGradient3924"/><linearGradient id="linearGradient3924"><stop id="stop3926" offset="0" style="stop-color:#fff;stop-opacity:1"/><stop style="stop-color:#fff;stop-opacity:.23529412" id="stop3928" offset=".063"/><stop id="stop3930" offset=".951" style="stop-color:#fff;stop-opacity:.15686275"/><stop id="stop3932" offset="1" style="stop-color:#fff;stop-opacity:.39215687"/></linearGradient><radialGradient id="radialGradient7038" cx="254.5" cy="289.5" r="157.5" fx="254.5" fy="289.5" gradientTransform="matrix(1.0537361,0,0,1.0417793,-13.67583,-12.095121)" gradientUnits="userSpaceOnUse" xlink:href="#linearGradient8775"/><linearGradient id="linearGradient8775"><stop style="stop-color:white;stop-opacity:0" id="stop8777" offset="0"/><stop id="stop7191" offset=".511" style="stop-color:white;stop-opacity:0"/><stop id="stop8779" offset=".851" style="stop-color:white;stop-opacity:0"/><stop style="stop-color:white;stop-opacity:1" id="stop8781" offset="1"/></linearGradient><linearGradient id="linearGradient7040" x1="16.626" x2="20.055" y1="15.298" y2="24.628" gradientTransform="matrix(8.4233995,0,0,13.199314,522.34971,569.68814)" gradientUnits="userSpaceOnUse" xlink:href="#linearGradient8265-821-176-38-919-66-249-7-7"/><linearGradient id="linearGradient7479"><stop style="stop-color:#fff;stop-opacity:1" id="stop7481" offset="0"/><stop style="stop-color:#fff;stop-opacity:0" id="stop7483" offset="1"/></linearGradient><linearGradient id="linearGradient7508" x1="16.626" x2="20.055" y1="15.298" y2="24.628" gradientTransform="matrix(8.4233995,0,0,13.199314,522.34971,569.68814)" gradientUnits="userSpaceOnUse" xlink:href="#linearGradient8265-821-176-38-919-66-249-7-7"/><radialGradient id="radialGradient8112" cx="254.5" cy="289.5" r="157.5" fx="254.5" fy="289.5" gradientTransform="matrix(1.0059031,7.5993956e-8,-7.5993953e-8,1.0059031,-1.5023177,-1.7089678)" gradientUnits="userSpaceOnUse" xlink:href="#linearGradient8757"/><radialGradient id="radialGradient8114" cx="-4.029" cy="93.468" r="35.338" fx="-4.029" fy="93.468" gradientTransform="matrix(1,0,0,0.43648207,0,52.670685)" gradientUnits="userSpaceOnUse" xlink:href="#linearGradient3811"/><radialGradient id="radialGradient8116" cx="4.993" cy="43.5" r="2.5" fx="4.993" fy="43.5" gradientTransform="matrix(2.003784,0,0,1.4,27.98813,-17.4)" gradientUnits="userSpaceOnUse" xlink:href="#linearGradient3688-166-749-5"/><radialGradient id="radialGradient8118" cx="4.993" cy="43.5" r="2.5" fx="4.993" fy="43.5" gradientTransform="matrix(2.003784,0,0,1.4,-20.01187,-104.4)" gradientUnits="userSpaceOnUse" xlink:href="#linearGradient3688-464-309-8"/><linearGradient id="linearGradient8120" x1="25.058" x2="25.058" y1="47.028" y2="39.999" gradientUnits="userSpaceOnUse" xlink:href="#linearGradient3702-501-757-0"/><radialGradient id="radialGradient8122" cx="7.496" cy="8.45" r="20" fx="7.496" fy="8.45" gradientTransform="matrix(2.0282874e-7,24.397639,-25.809792,-4.4949761e-7,943.54575,458.5335)" gradientUnits="userSpaceOnUse" xlink:href="#linearGradient8655"/><linearGradient id="linearGradient8124" x1="13.209" x2="13.209" y1="4.376" y2="43.847" gradientTransform="matrix(10.43977,0,0,10.43977,474.90338,588.34996)" gradientUnits="userSpaceOnUse" xlink:href="#linearGradient3895-9-0-3-2-4"/><radialGradient id="radialGradient8126" cx="254.5" cy="289.5" r="159" fx="254.5" fy="289.5" gradientTransform="matrix(0.83846914,0,0,0.83846914,41.109603,46.763183)" gradientUnits="userSpaceOnUse" xlink:href="#linearGradient8265-821-176-38-919-66-249-7-7"/><radialGradient id="radialGradient8128" cx="7.496" cy="8.45" r="20" fx="7.496" fy="8.45" gradientTransform="matrix(-0.20300624,9.1943889,-16.918507,-0.37355118,869.04843,-1104.8444)" gradientUnits="userSpaceOnUse" xlink:href="#linearGradient8661"/><linearGradient id="linearGradient8130" x1="24" x2="24" y1="5" y2="43" gradientTransform="matrix(10.020654,0,0,10.020654,484.96214,598.40882)" gradientUnits="userSpaceOnUse" xlink:href="#linearGradient3924"/><radialGradient id="radialGradient8132" cx="254.5" cy="289.5" r="157.5" fx="254.5" fy="289.5" gradientTransform="matrix(1.0537361,0,0,1.0417793,-13.67583,-12.095121)" gradientUnits="userSpaceOnUse" xlink:href="#linearGradient8775"/><linearGradient id="linearGradient8134" x1="16.626" x2="20.055" y1="15.298" y2="24.628" gradientTransform="matrix(8.4233995,0,0,13.199314,522.34971,569.68814)" gradientUnits="userSpaceOnUse" xlink:href="#linearGradient8265-821-176-38-919-66-249-7-7"/></defs><metadata id="metadata7787"/><g id="layer1" transform="translate(0,-1004.3622)"><g id="g3830" transform="matrix(1.0380622,0,0,1.0583272,-1.5912503,-61.559896)" style="fill:#d1d1d1;fill-opacity:1;stroke:#262626;stroke-width:1;stroke-miterlimit:4;stroke-opacity:1;stroke-dasharray:none"><path style="font-size:medium;font-style:normal;font-variant:normal;font-weight:400;font-stretch:normal;text-indent:0;text-align:start;text-decoration:none;line-height:normal;letter-spacing:normal;word-spacing:normal;text-transform:none;direction:ltr;block-progression:tb;writing-mode:lr-tb;text-anchor:start;baseline-shift:baseline;color:#000;fill:#d1d1d1;fill-opacity:1;stroke:#262626;stroke-width:1;stroke-miterlimit:4;stroke-opacity:1;stroke-dasharray:none;marker:none;visibility:visible;display:inline;overflow:visible;enable-background:accumulate;font-family:Sans;-inkscape-font-specification:Sans" id="path6940" d="m 12.6875,15.125 a 2.5114776,2.5114776 0 0 0 0.25,5 l 1.5,0 c 0.627747,0 0.857787,0.12205 1.3125,0.53125 0.454712,0.4093 0.997252,1.1834 1.625,2.125 0.483888,0.725817 1.021039,1.572821 1.75,2.375 -0.73593,0.806781 -1.263117,1.644692 -1.75,2.375 -0.627748,0.9416 -1.170286,1.7157 -1.625,2.125 -0.454714,0.4092 -0.684749,0.53125 -1.3125,0.53125 l -1.5,0 a 2.515625,2.515625 0 1 0 0,5.03125 l 1.5,0 c 1.883236,0 3.541596,-0.84055 4.65625,-1.84375 1.114653,-1.0032 1.809753,-2.1209 2.4375,-3.0625 0.627747,-0.9416 1.201536,-1.7158 1.65625,-2.125 0.454714,-0.4093 0.653499,-0.53125 1.28125,-0.53125 0.62775,0 0.857785,0.12195 1.3125,0.53125 0.454714,0.4092 0.997253,1.1834 1.625,2.125 0.627747,0.9416 1.354096,2.0593 2.46875,3.0625 1.114653,1.0032 2.773013,1.84375 4.65625,1.84375 l 1.5,0 a 2.515625,2.515625 0 0 0 0,-5.03125 l -1.5,0 c -0.627751,0 -0.857786,-0.12205 -1.3125,-0.53125 -0.454714,-0.4093 -0.997253,-1.1834 -1.625,-2.125 -0.489643,-0.734448 -1.03886,-1.563991 -1.78125,-2.375 0.273503,-0.290045 0.502817,-0.589033 0.71875,-0.875 1.183313,-1.567 2.005683,-3.0129 2.6875,-3.625 0.453166,-0.4069 0.686187,-0.53125 1.3125,-0.53125 l 1.5,0 a 2.5114776,2.5114776 0 0 0 0,-5 l -1.5,0 c -1.878947,0 -3.542198,0.8123 -4.65625,1.8125 -1.676176,1.5049 -2.525136,3.2285 -3.34375,4.3125 -0.818615,1.0841 -1.120165,1.40625 -2.0625,1.40625 -0.627748,0 -0.826538,-0.12195 -1.28125,-0.53125 C 22.732788,21.7158 22.158997,20.9416 21.53125,20 20.903503,19.0584 20.208405,17.9407 19.09375,16.9375 17.979094,15.9343 16.32074,15.125 14.4375,15.125 l -1.5,0 a 2.5114776,2.5114776 0 0 0 -0.25,0 z" transform="translate(0,1004.3622)"/></g><g id="g4789" transform="matrix(0.97741131,0,0,0.9419148,0.61174059,59.990734)"><g id="g4786"><path style="font-size:medium;font-style:normal;font-variant:normal;font-weight:400;font-stretch:normal;text-indent:0;text-align:start;text-decoration:none;line-height:normal;letter-spacing:normal;word-spacing:normal;text-transform:none;direction:ltr;block-progression:tb;writing-mode:lr-tb;text-anchor:start;baseline-shift:baseline;color:#000;fill:#262626;fill-opacity:1;stroke:none;stroke-width:0;marker:none;visibility:visible;display:inline;overflow:visible;enable-background:accumulate;font-family:Sans;-inkscape-font-specification:Sans" id="rect6916-1" d="m 5.2596123,1005.5698 c -1.9980623,0 -3.6452056,1.6472 -3.6452056,3.6452 l 0,37.2774 c 0,1.9981 1.6471433,3.6452 3.6452056,3.6452 l 37.2773857,0 c 1.998061,0 3.645204,-1.6471 3.645204,-3.6452 l 0,-37.2774 c 0,-1.998 -1.647143,-3.6452 -3.645204,-3.6452 l -37.2773857,0 z m 0,2.3727 37.2773857,0 c 0.72496,0 1.272381,0.5475 1.272381,1.2725 l 0,37.2774 c 0,0.725 -0.547421,1.2724 -1.272381,1.2724 l -37.2773857,0 c -0.7249606,0 -1.2723831,-0.5474 -1.2723831,-1.2724 l 0,-37.2774 c 0,-0.725 0.5474225,-1.2724 1.2723831,-1.2725 z"/></g><path id="rect6916" d="m 6.4840733,1007.0323 c -1.862946,0 -3.3987038,1.5357 -3.3987038,3.3987 l 0,34.7565 c 0,1.8631 1.5357578,3.3987 3.3987038,3.3987 l 34.7565557,0 c 1.862946,0 3.398703,-1.5356 3.398703,-3.3987 l 0,-34.7565 c 0,-1.863 -1.535757,-3.3987 -3.398703,-3.3987 l -34.7565557,0 z m 0,2.2123 34.7565557,0 c 0.675936,0 1.186339,0.5104 1.186339,1.1864 l 0,34.7565 c 0,0.6761 -0.510403,1.1865 -1.186339,1.1865 l -34.7565557,0 c -0.6759363,0 -1.1863401,-0.5104 -1.1863401,-1.1865 l 0,-34.7565 c 0,-0.676 0.5104038,-1.1863 1.1863401,-1.1864 z" style="font-size:medium;font-style:normal;font-variant:normal;font-weight:400;font-stretch:normal;text-indent:0;text-align:start;text-decoration:none;line-height:normal;letter-spacing:normal;word-spacing:normal;text-transform:none;direction:ltr;block-progression:tb;writing-mode:lr-tb;text-anchor:start;baseline-shift:baseline;color:#000;fill:#d9d9d9;fill-opacity:1;stroke:none;stroke-width:0;marker:none;visibility:visible;display:inline;overflow:visible;enable-background:accumulate;font-family:Sans;-inkscape-font-specification:Sans"/></g></g></svg>