<svg xmlns="http://www.w3.org/2000/svg" xmlns:svg="http://www.w3.org/2000/svg" id="svg3062" width="32" height="32" version="1.1"><defs id="defs3064"><filter id="filter3861" width="1.102" height="1.906" x="-.051" y="-.453"><feGaussianBlur id="feGaussianBlur3863" stdDeviation=".438"/></filter></defs><metadata id="metadata3067"/><g id="layer1"><path style="fill:#6a6a6a;fill-opacity:.38235294;fill-rule:evenodd;stroke:none;filter:url(#filter3861)" id="path3083" d="m 21.343474,29.946026 a 10.314525,1.1609421 0 1 1 -20.62904891,0 10.314525,1.1609421 0 1 1 20.62904891,0 z" transform="matrix(0.88134922,0,0,1.6069567,6.5933165,-18.812508)"/><g id="g2990" transform="matrix(0.92301171,0,0,0.91454781,1.1872864,0.02131321)"><path id="path3881" d="m 30.095191,16.148674 c 0,7.274821 -5.797451,13.172228 -12.94897,13.172228 -7.1515184,0 -12.9489697,-5.897407 -12.9489697,-13.172228 0,-7.2748206 5.7974513,-13.1722278 12.9489697,-13.1722278 7.151519,0 12.94897,5.8974072 12.94897,13.1722278 z" transform="translate(-1.2502454,-0.26790972)" style="fill:#fff;fill-opacity:1;stroke:#fff;stroke-width:.2;stroke-miterlimit:4;stroke-opacity:1;stroke-dasharray:none"/><path id="path59" d="m 0.40877997,15.923417 c 0,8.59 6.98800003,15.578 15.57600003,15.578 8.589,0 15.577,-6.988 15.577,-15.578 0,-8.5859999 -6.988,-15.57400018 -15.577,-15.57400018 -8.588,0 -15.57600003,6.98800028 -15.57600003,15.57400018 z m 3.15100003,0 c 0,-6.8519999 5.574,-12.4240002 12.425,-12.4240002 6.851,0 12.428,5.5720003 12.428,12.4240002 0,6.855 -5.577,12.428 -12.428,12.428 -6.851,0 -12.425,-5.573 -12.425,-12.428 z" style="fill:#006da5;stroke:#fff;stroke-width:.2;stroke-miterlimit:4;stroke-opacity:1;stroke-dasharray:none"/><path id="path61" d="m 17.73378,22.331417 c 0,1.008 -0.817,1.824 -1.825,1.824 l 0,0 c -1.005,0 -1.822,-0.816 -1.822,-1.824 V 7.7434171 c 0,-1.008 0.816,-1.824 1.822,-1.824 l 0,0 c 1.008,0 1.825,0.816 1.825,1.824 V 22.331417 z" style="fill:#006da5;stroke:#fff;stroke-width:.2;stroke-miterlimit:4;stroke-opacity:1;stroke-dasharray:none"/><path id="path63" d="m 11.73178,22.331417 c 0,1.008 -0.818,1.824 -1.826,1.824 l 0,0 c -1.005,0 -1.822,-0.816 -1.822,-1.824 v -7.752 c 0,-1.004 0.817,-1.822 1.822,-1.822 l 0,0 c 1.008,0 1.826,0.818 1.826,1.822 v 7.752 z" style="fill:#006da5;stroke:#fff;stroke-width:.2;stroke-miterlimit:4;stroke-opacity:1;stroke-dasharray:none"/><path id="path65" d="m 23.73578,22.331417 c 0,1.008 -0.816,1.824 -1.824,1.824 l 0,0 c -1.005,0 -1.822,-0.816 -1.822,-1.824 v -7.752 c 0,-1.004 0.817,-1.822 1.822,-1.822 l 0,0 c 1.008,0 1.824,0.818 1.824,1.822 v 7.752 z" style="fill:#006da5;stroke:#fff;stroke-width:.2;stroke-miterlimit:4;stroke-opacity:1;stroke-dasharray:none"/></g></g></svg>